<?xml version="1.0" encoding="utf-8" standalone="no"?>
<!DOCTYPE svg PUBLIC "-//W3C//DTD SVG 1.1//EN"
  "http://www.w3.org/Graphics/SVG/1.1/DTD/svg11.dtd">
<!-- Created with matplotlib (https://matplotlib.org/) -->
<svg height="792pt" version="1.1" viewBox="0 0 792 792" width="792pt" xmlns="http://www.w3.org/2000/svg" xmlns:xlink="http://www.w3.org/1999/xlink">
 <metadata>
  <rdf:RDF xmlns:cc="http://creativecommons.org/ns#" xmlns:dc="http://purl.org/dc/elements/1.1/" xmlns:rdf="http://www.w3.org/1999/02/22-rdf-syntax-ns#">
   <cc:Work>
    <dc:type rdf:resource="http://purl.org/dc/dcmitype/StillImage"/>
    <dc:date>2020-10-07T11:30:58.191935</dc:date>
    <dc:format>image/svg+xml</dc:format>
    <dc:creator>
     <cc:Agent>
      <dc:title>Matplotlib v3.3.2, https://matplotlib.org/</dc:title>
     </cc:Agent>
    </dc:creator>
   </cc:Work>
  </rdf:RDF>
 </metadata>
 <defs>
  <style type="text/css">*{stroke-linecap:butt;stroke-linejoin:round;}</style>
 </defs>
 <g id="figure_1">
  <g id="patch_1">
   <path d="M 0 792 
L 792 792 
L 792 0 
L 0 0 
z
" style="fill:#ffffff;"/>
  </g>
  <g id="axes_1">
   <g id="patch_2">
    <path d="M 99 693 
L 712.8 693 
L 712.8 95.04 
L 99 95.04 
z
" style="fill:#ffffff;"/>
   </g>
   <g id="matplotlib.axis_1">
    <g id="xtick_1">
     <g id="line2d_1">
      <path clip-path="url(#p7c96cd3a65)" d="M 150.328947 693 
L 150.328947 95.04 
" style="fill:none;stroke:#cccccc;stroke-linecap:round;stroke-width:0.8;"/>
     </g>
     <g id="line2d_2"/>
     <g id="text_1">
      <!-- 1960 -->
      <g style="fill:#262626;" transform="translate(139.207072 703.657812)scale(0.1 -0.1)">
       <defs>
        <path d="M 37.25 0 
L 28.46875 0 
L 28.46875 56 
Q 25.296875 52.984375 20.140625 49.953125 
Q 14.984375 46.921875 10.890625 45.40625 
L 10.890625 53.90625 
Q 18.265625 57.375 23.78125 62.296875 
Q 29.296875 67.234375 31.59375 71.875 
L 37.25 71.875 
z
" id="ArialMT-49"/>
        <path d="M 5.46875 16.546875 
L 13.921875 17.328125 
Q 14.984375 11.375 18.015625 8.6875 
Q 21.046875 6 25.78125 6 
Q 29.828125 6 32.875 7.859375 
Q 35.9375 9.71875 37.890625 12.8125 
Q 39.84375 15.921875 41.15625 21.1875 
Q 42.484375 26.46875 42.484375 31.9375 
Q 42.484375 32.515625 42.4375 33.6875 
Q 39.796875 29.5 35.234375 26.875 
Q 30.671875 24.265625 25.34375 24.265625 
Q 16.453125 24.265625 10.296875 30.703125 
Q 4.15625 37.15625 4.15625 47.703125 
Q 4.15625 58.59375 10.578125 65.234375 
Q 17 71.875 26.65625 71.875 
Q 33.640625 71.875 39.421875 68.109375 
Q 45.21875 64.359375 48.21875 57.390625 
Q 51.21875 50.4375 51.21875 37.25 
Q 51.21875 23.53125 48.234375 15.40625 
Q 45.265625 7.28125 39.375 3.03125 
Q 33.5 -1.21875 25.59375 -1.21875 
Q 17.1875 -1.21875 11.859375 3.4375 
Q 6.546875 8.109375 5.46875 16.546875 
z
M 41.453125 48.140625 
Q 41.453125 55.71875 37.421875 60.15625 
Q 33.40625 64.59375 27.734375 64.59375 
Q 21.875 64.59375 17.53125 59.8125 
Q 13.1875 55.03125 13.1875 47.40625 
Q 13.1875 40.578125 17.3125 36.296875 
Q 21.4375 32.03125 27.484375 32.03125 
Q 33.59375 32.03125 37.515625 36.296875 
Q 41.453125 40.578125 41.453125 48.140625 
z
" id="ArialMT-57"/>
        <path d="M 49.75 54.046875 
L 41.015625 53.375 
Q 39.84375 58.546875 37.703125 60.890625 
Q 34.125 64.65625 28.90625 64.65625 
Q 24.703125 64.65625 21.53125 62.3125 
Q 17.390625 59.28125 14.984375 53.46875 
Q 12.59375 47.65625 12.5 36.921875 
Q 15.671875 41.75 20.265625 44.09375 
Q 24.859375 46.4375 29.890625 46.4375 
Q 38.671875 46.4375 44.84375 39.96875 
Q 51.03125 33.5 51.03125 23.25 
Q 51.03125 16.5 48.125 10.71875 
Q 45.21875 4.9375 40.140625 1.859375 
Q 35.0625 -1.21875 28.609375 -1.21875 
Q 17.625 -1.21875 10.6875 6.859375 
Q 3.765625 14.9375 3.765625 33.5 
Q 3.765625 54.25 11.421875 63.671875 
Q 18.109375 71.875 29.4375 71.875 
Q 37.890625 71.875 43.28125 67.140625 
Q 48.6875 62.40625 49.75 54.046875 
z
M 13.875 23.1875 
Q 13.875 18.65625 15.796875 14.5 
Q 17.71875 10.359375 21.1875 8.171875 
Q 24.65625 6 28.46875 6 
Q 34.03125 6 38.03125 10.484375 
Q 42.046875 14.984375 42.046875 22.703125 
Q 42.046875 30.125 38.078125 34.390625 
Q 34.125 38.671875 28.125 38.671875 
Q 22.171875 38.671875 18.015625 34.390625 
Q 13.875 30.125 13.875 23.1875 
z
" id="ArialMT-54"/>
        <path d="M 4.15625 35.296875 
Q 4.15625 48 6.765625 55.734375 
Q 9.375 63.484375 14.515625 67.671875 
Q 19.671875 71.875 27.484375 71.875 
Q 33.25 71.875 37.59375 69.546875 
Q 41.9375 67.234375 44.765625 62.859375 
Q 47.609375 58.5 49.21875 52.21875 
Q 50.828125 45.953125 50.828125 35.296875 
Q 50.828125 22.703125 48.234375 14.96875 
Q 45.65625 7.234375 40.5 3 
Q 35.359375 -1.21875 27.484375 -1.21875 
Q 17.140625 -1.21875 11.234375 6.203125 
Q 4.15625 15.140625 4.15625 35.296875 
z
M 13.1875 35.296875 
Q 13.1875 17.671875 17.3125 11.828125 
Q 21.4375 6 27.484375 6 
Q 33.546875 6 37.671875 11.859375 
Q 41.796875 17.71875 41.796875 35.296875 
Q 41.796875 52.984375 37.671875 58.78125 
Q 33.546875 64.59375 27.390625 64.59375 
Q 21.34375 64.59375 17.71875 59.46875 
Q 13.1875 52.9375 13.1875 35.296875 
z
" id="ArialMT-48"/>
       </defs>
       <use xlink:href="#ArialMT-49"/>
       <use x="55.615234" xlink:href="#ArialMT-57"/>
       <use x="111.230469" xlink:href="#ArialMT-54"/>
       <use x="166.845703" xlink:href="#ArialMT-48"/>
      </g>
     </g>
    </g>
    <g id="xtick_2">
     <g id="line2d_3">
      <path clip-path="url(#p7c96cd3a65)" d="M 214.121325 693 
L 214.121325 95.04 
" style="fill:none;stroke:#cccccc;stroke-linecap:round;stroke-width:0.8;"/>
     </g>
     <g id="line2d_4"/>
     <g id="text_2">
      <!-- 1965 -->
      <g style="fill:#262626;" transform="translate(202.99945 703.657812)scale(0.1 -0.1)">
       <defs>
        <path d="M 4.15625 18.75 
L 13.375 19.53125 
Q 14.40625 12.796875 18.140625 9.390625 
Q 21.875 6 27.15625 6 
Q 33.5 6 37.890625 10.78125 
Q 42.28125 15.578125 42.28125 23.484375 
Q 42.28125 31 38.0625 35.34375 
Q 33.84375 39.703125 27 39.703125 
Q 22.75 39.703125 19.328125 37.765625 
Q 15.921875 35.84375 13.96875 32.765625 
L 5.71875 33.84375 
L 12.640625 70.609375 
L 48.25 70.609375 
L 48.25 62.203125 
L 19.671875 62.203125 
L 15.828125 42.96875 
Q 22.265625 47.46875 29.34375 47.46875 
Q 38.71875 47.46875 45.15625 40.96875 
Q 51.609375 34.46875 51.609375 24.265625 
Q 51.609375 14.546875 45.953125 7.46875 
Q 39.0625 -1.21875 27.15625 -1.21875 
Q 17.390625 -1.21875 11.203125 4.25 
Q 5.03125 9.71875 4.15625 18.75 
z
" id="ArialMT-53"/>
       </defs>
       <use xlink:href="#ArialMT-49"/>
       <use x="55.615234" xlink:href="#ArialMT-57"/>
       <use x="111.230469" xlink:href="#ArialMT-54"/>
       <use x="166.845703" xlink:href="#ArialMT-53"/>
      </g>
     </g>
    </g>
    <g id="xtick_3">
     <g id="line2d_5">
      <path clip-path="url(#p7c96cd3a65)" d="M 277.878787 693 
L 277.878787 95.04 
" style="fill:none;stroke:#cccccc;stroke-linecap:round;stroke-width:0.8;"/>
     </g>
     <g id="line2d_6"/>
     <g id="text_3">
      <!-- 1970 -->
      <g style="fill:#262626;" transform="translate(266.756912 703.657812)scale(0.1 -0.1)">
       <defs>
        <path d="M 4.734375 62.203125 
L 4.734375 70.65625 
L 51.078125 70.65625 
L 51.078125 63.8125 
Q 44.234375 56.546875 37.515625 44.484375 
Q 30.8125 32.421875 27.15625 19.671875 
Q 24.515625 10.6875 23.78125 0 
L 14.75 0 
Q 14.890625 8.453125 18.0625 20.40625 
Q 21.234375 32.375 27.171875 43.484375 
Q 33.109375 54.59375 39.796875 62.203125 
z
" id="ArialMT-55"/>
       </defs>
       <use xlink:href="#ArialMT-49"/>
       <use x="55.615234" xlink:href="#ArialMT-57"/>
       <use x="111.230469" xlink:href="#ArialMT-55"/>
       <use x="166.845703" xlink:href="#ArialMT-48"/>
      </g>
     </g>
    </g>
    <g id="xtick_4">
     <g id="line2d_7">
      <path clip-path="url(#p7c96cd3a65)" d="M 341.636249 693 
L 341.636249 95.04 
" style="fill:none;stroke:#cccccc;stroke-linecap:round;stroke-width:0.8;"/>
     </g>
     <g id="line2d_8"/>
     <g id="text_4">
      <!-- 1975 -->
      <g style="fill:#262626;" transform="translate(330.514374 703.657812)scale(0.1 -0.1)">
       <use xlink:href="#ArialMT-49"/>
       <use x="55.615234" xlink:href="#ArialMT-57"/>
       <use x="111.230469" xlink:href="#ArialMT-55"/>
       <use x="166.845703" xlink:href="#ArialMT-53"/>
      </g>
     </g>
    </g>
    <g id="xtick_5">
     <g id="line2d_9">
      <path clip-path="url(#p7c96cd3a65)" d="M 405.393711 693 
L 405.393711 95.04 
" style="fill:none;stroke:#cccccc;stroke-linecap:round;stroke-width:0.8;"/>
     </g>
     <g id="line2d_10"/>
     <g id="text_5">
      <!-- 1980 -->
      <g style="fill:#262626;" transform="translate(394.271836 703.657812)scale(0.1 -0.1)">
       <defs>
        <path d="M 17.671875 38.8125 
Q 12.203125 40.828125 9.5625 44.53125 
Q 6.9375 48.25 6.9375 53.421875 
Q 6.9375 61.234375 12.546875 66.546875 
Q 18.171875 71.875 27.484375 71.875 
Q 36.859375 71.875 42.578125 66.421875 
Q 48.296875 60.984375 48.296875 53.171875 
Q 48.296875 48.1875 45.671875 44.5 
Q 43.0625 40.828125 37.75 38.8125 
Q 44.34375 36.671875 47.78125 31.875 
Q 51.21875 27.09375 51.21875 20.453125 
Q 51.21875 11.28125 44.71875 5.03125 
Q 38.234375 -1.21875 27.640625 -1.21875 
Q 17.046875 -1.21875 10.546875 5.046875 
Q 4.046875 11.328125 4.046875 20.703125 
Q 4.046875 27.6875 7.59375 32.390625 
Q 11.140625 37.109375 17.671875 38.8125 
z
M 15.921875 53.71875 
Q 15.921875 48.640625 19.1875 45.40625 
Q 22.46875 42.1875 27.6875 42.1875 
Q 32.765625 42.1875 36.015625 45.375 
Q 39.265625 48.578125 39.265625 53.21875 
Q 39.265625 58.0625 35.90625 61.359375 
Q 32.5625 64.65625 27.59375 64.65625 
Q 22.5625 64.65625 19.234375 61.421875 
Q 15.921875 58.203125 15.921875 53.71875 
z
M 13.09375 20.65625 
Q 13.09375 16.890625 14.875 13.375 
Q 16.65625 9.859375 20.171875 7.921875 
Q 23.6875 6 27.734375 6 
Q 34.03125 6 38.125 10.046875 
Q 42.234375 14.109375 42.234375 20.359375 
Q 42.234375 26.703125 38.015625 30.859375 
Q 33.796875 35.015625 27.4375 35.015625 
Q 21.234375 35.015625 17.15625 30.90625 
Q 13.09375 26.8125 13.09375 20.65625 
z
" id="ArialMT-56"/>
       </defs>
       <use xlink:href="#ArialMT-49"/>
       <use x="55.615234" xlink:href="#ArialMT-57"/>
       <use x="111.230469" xlink:href="#ArialMT-56"/>
       <use x="166.845703" xlink:href="#ArialMT-48"/>
      </g>
     </g>
    </g>
    <g id="xtick_6">
     <g id="line2d_11">
      <path clip-path="url(#p7c96cd3a65)" d="M 469.18609 693 
L 469.18609 95.04 
" style="fill:none;stroke:#cccccc;stroke-linecap:round;stroke-width:0.8;"/>
     </g>
     <g id="line2d_12"/>
     <g id="text_6">
      <!-- 1985 -->
      <g style="fill:#262626;" transform="translate(458.064215 703.657812)scale(0.1 -0.1)">
       <use xlink:href="#ArialMT-49"/>
       <use x="55.615234" xlink:href="#ArialMT-57"/>
       <use x="111.230469" xlink:href="#ArialMT-56"/>
       <use x="166.845703" xlink:href="#ArialMT-53"/>
      </g>
     </g>
    </g>
    <g id="xtick_7">
     <g id="line2d_13">
      <path clip-path="url(#p7c96cd3a65)" d="M 532.943552 693 
L 532.943552 95.04 
" style="fill:none;stroke:#cccccc;stroke-linecap:round;stroke-width:0.8;"/>
     </g>
     <g id="line2d_14"/>
     <g id="text_7">
      <!-- 1990 -->
      <g style="fill:#262626;" transform="translate(521.821677 703.657812)scale(0.1 -0.1)">
       <use xlink:href="#ArialMT-49"/>
       <use x="55.615234" xlink:href="#ArialMT-57"/>
       <use x="111.230469" xlink:href="#ArialMT-57"/>
       <use x="166.845703" xlink:href="#ArialMT-48"/>
      </g>
     </g>
    </g>
    <g id="xtick_8">
     <g id="line2d_15">
      <path clip-path="url(#p7c96cd3a65)" d="M 596.701014 693 
L 596.701014 95.04 
" style="fill:none;stroke:#cccccc;stroke-linecap:round;stroke-width:0.8;"/>
     </g>
     <g id="line2d_16"/>
     <g id="text_8">
      <!-- 1995 -->
      <g style="fill:#262626;" transform="translate(585.579139 703.657812)scale(0.1 -0.1)">
       <use xlink:href="#ArialMT-49"/>
       <use x="55.615234" xlink:href="#ArialMT-57"/>
       <use x="111.230469" xlink:href="#ArialMT-57"/>
       <use x="166.845703" xlink:href="#ArialMT-53"/>
      </g>
     </g>
    </g>
    <g id="xtick_9">
     <g id="line2d_17">
      <path clip-path="url(#p7c96cd3a65)" d="M 660.458476 693 
L 660.458476 95.04 
" style="fill:none;stroke:#cccccc;stroke-linecap:round;stroke-width:0.8;"/>
     </g>
     <g id="line2d_18"/>
     <g id="text_9">
      <!-- 2000 -->
      <g style="fill:#262626;" transform="translate(649.336601 703.657812)scale(0.1 -0.1)">
       <defs>
        <path d="M 50.34375 8.453125 
L 50.34375 0 
L 3.03125 0 
Q 2.9375 3.171875 4.046875 6.109375 
Q 5.859375 10.9375 9.828125 15.625 
Q 13.8125 20.3125 21.34375 26.46875 
Q 33.015625 36.03125 37.109375 41.625 
Q 41.21875 47.21875 41.21875 52.203125 
Q 41.21875 57.421875 37.46875 61 
Q 33.734375 64.59375 27.734375 64.59375 
Q 21.390625 64.59375 17.578125 60.78125 
Q 13.765625 56.984375 13.71875 50.25 
L 4.6875 51.171875 
Q 5.609375 61.28125 11.65625 66.578125 
Q 17.71875 71.875 27.9375 71.875 
Q 38.234375 71.875 44.234375 66.15625 
Q 50.25 60.453125 50.25 52 
Q 50.25 47.703125 48.484375 43.546875 
Q 46.734375 39.40625 42.65625 34.8125 
Q 38.578125 30.21875 29.109375 22.21875 
Q 21.1875 15.578125 18.9375 13.203125 
Q 16.703125 10.84375 15.234375 8.453125 
z
" id="ArialMT-50"/>
       </defs>
       <use xlink:href="#ArialMT-50"/>
       <use x="55.615234" xlink:href="#ArialMT-48"/>
       <use x="111.230469" xlink:href="#ArialMT-48"/>
       <use x="166.845703" xlink:href="#ArialMT-48"/>
      </g>
     </g>
    </g>
   </g>
   <g id="matplotlib.axis_2">
    <g id="ytick_1">
     <g id="line2d_19">
      <path clip-path="url(#p7c96cd3a65)" d="M 99 606.42 
L 712.8 606.42 
" style="fill:none;stroke:#cccccc;stroke-linecap:round;stroke-width:0.8;"/>
     </g>
     <g id="line2d_20"/>
     <g id="text_10">
      <!-- 320 -->
      <g style="fill:#262626;" transform="translate(78.817188 609.998906)scale(0.1 -0.1)">
       <defs>
        <path d="M 4.203125 18.890625 
L 12.984375 20.0625 
Q 14.5 12.59375 18.140625 9.296875 
Q 21.78125 6 27 6 
Q 33.203125 6 37.46875 10.296875 
Q 41.75 14.59375 41.75 20.953125 
Q 41.75 27 37.796875 30.921875 
Q 33.84375 34.859375 27.734375 34.859375 
Q 25.25 34.859375 21.53125 33.890625 
L 22.515625 41.609375 
Q 23.390625 41.5 23.921875 41.5 
Q 29.546875 41.5 34.03125 44.421875 
Q 38.53125 47.359375 38.53125 53.46875 
Q 38.53125 58.296875 35.25 61.46875 
Q 31.984375 64.65625 26.8125 64.65625 
Q 21.6875 64.65625 18.265625 61.421875 
Q 14.84375 58.203125 13.875 51.765625 
L 5.078125 53.328125 
Q 6.6875 62.15625 12.390625 67.015625 
Q 18.109375 71.875 26.609375 71.875 
Q 32.46875 71.875 37.390625 69.359375 
Q 42.328125 66.84375 44.9375 62.5 
Q 47.5625 58.15625 47.5625 53.265625 
Q 47.5625 48.640625 45.0625 44.828125 
Q 42.578125 41.015625 37.703125 38.765625 
Q 44.046875 37.3125 47.5625 32.6875 
Q 51.078125 28.078125 51.078125 21.140625 
Q 51.078125 11.765625 44.234375 5.25 
Q 37.40625 -1.265625 26.953125 -1.265625 
Q 17.53125 -1.265625 11.296875 4.34375 
Q 5.078125 9.96875 4.203125 18.890625 
z
" id="ArialMT-51"/>
       </defs>
       <use xlink:href="#ArialMT-51"/>
       <use x="55.615234" xlink:href="#ArialMT-50"/>
       <use x="111.230469" xlink:href="#ArialMT-48"/>
      </g>
     </g>
    </g>
    <g id="ytick_2">
     <g id="line2d_21">
      <path clip-path="url(#p7c96cd3a65)" d="M 99 516.42 
L 712.8 516.42 
" style="fill:none;stroke:#cccccc;stroke-linecap:round;stroke-width:0.8;"/>
     </g>
     <g id="line2d_22"/>
     <g id="text_11">
      <!-- 330 -->
      <g style="fill:#262626;" transform="translate(78.817188 519.998906)scale(0.1 -0.1)">
       <use xlink:href="#ArialMT-51"/>
       <use x="55.615234" xlink:href="#ArialMT-51"/>
       <use x="111.230469" xlink:href="#ArialMT-48"/>
      </g>
     </g>
    </g>
    <g id="ytick_3">
     <g id="line2d_23">
      <path clip-path="url(#p7c96cd3a65)" d="M 99 426.42 
L 712.8 426.42 
" style="fill:none;stroke:#cccccc;stroke-linecap:round;stroke-width:0.8;"/>
     </g>
     <g id="line2d_24"/>
     <g id="text_12">
      <!-- 340 -->
      <g style="fill:#262626;" transform="translate(78.817188 429.998906)scale(0.1 -0.1)">
       <defs>
        <path d="M 32.328125 0 
L 32.328125 17.140625 
L 1.265625 17.140625 
L 1.265625 25.203125 
L 33.9375 71.578125 
L 41.109375 71.578125 
L 41.109375 25.203125 
L 50.78125 25.203125 
L 50.78125 17.140625 
L 41.109375 17.140625 
L 41.109375 0 
z
M 32.328125 25.203125 
L 32.328125 57.46875 
L 9.90625 25.203125 
z
" id="ArialMT-52"/>
       </defs>
       <use xlink:href="#ArialMT-51"/>
       <use x="55.615234" xlink:href="#ArialMT-52"/>
       <use x="111.230469" xlink:href="#ArialMT-48"/>
      </g>
     </g>
    </g>
    <g id="ytick_4">
     <g id="line2d_25">
      <path clip-path="url(#p7c96cd3a65)" d="M 99 336.42 
L 712.8 336.42 
" style="fill:none;stroke:#cccccc;stroke-linecap:round;stroke-width:0.8;"/>
     </g>
     <g id="line2d_26"/>
     <g id="text_13">
      <!-- 350 -->
      <g style="fill:#262626;" transform="translate(78.817188 339.998906)scale(0.1 -0.1)">
       <use xlink:href="#ArialMT-51"/>
       <use x="55.615234" xlink:href="#ArialMT-53"/>
       <use x="111.230469" xlink:href="#ArialMT-48"/>
      </g>
     </g>
    </g>
    <g id="ytick_5">
     <g id="line2d_27">
      <path clip-path="url(#p7c96cd3a65)" d="M 99 246.42 
L 712.8 246.42 
" style="fill:none;stroke:#cccccc;stroke-linecap:round;stroke-width:0.8;"/>
     </g>
     <g id="line2d_28"/>
     <g id="text_14">
      <!-- 360 -->
      <g style="fill:#262626;" transform="translate(78.817188 249.998906)scale(0.1 -0.1)">
       <use xlink:href="#ArialMT-51"/>
       <use x="55.615234" xlink:href="#ArialMT-54"/>
       <use x="111.230469" xlink:href="#ArialMT-48"/>
      </g>
     </g>
    </g>
    <g id="ytick_6">
     <g id="line2d_29">
      <path clip-path="url(#p7c96cd3a65)" d="M 99 156.42 
L 712.8 156.42 
" style="fill:none;stroke:#cccccc;stroke-linecap:round;stroke-width:0.8;"/>
     </g>
     <g id="line2d_30"/>
     <g id="text_15">
      <!-- 370 -->
      <g style="fill:#262626;" transform="translate(78.817188 159.998906)scale(0.1 -0.1)">
       <use xlink:href="#ArialMT-51"/>
       <use x="55.615234" xlink:href="#ArialMT-55"/>
       <use x="111.230469" xlink:href="#ArialMT-48"/>
      </g>
     </g>
    </g>
   </g>
   <g id="line2d_31">
    <path clip-path="url(#p7c96cd3a65)" d="M 126.9 641.52 
L 127.98241 631.62 
L 129.029904 629.52 
L 130.112315 645.795 
L 131.159809 645.795 
L 132.242219 651.87 
L 133.324629 664.92 
L 134.372123 665.595 
L 135.454534 665.595 
L 136.502027 654.12 
L 137.584438 646.92 
L 138.666848 636.12 
L 139.644509 635.82 
L 140.726919 627.345 
L 141.774413 621.495 
L 142.856824 624.195 
L 144.986728 652.32 
L 146.069138 661.995 
L 147.116632 665.82 
L 148.199043 652.545 
L 149.246537 646.695 
L 150.328947 639 
L 152.423935 628.245 
L 153.506345 614.34 
L 154.553839 607.095 
L 155.636249 611.37 
L 156.683743 623.88 
L 157.766154 644.445 
L 158.848564 658.845 
L 159.896058 661.86 
L 162.025962 640.62 
L 164.190783 627.57 
L 167.298348 602.145 
L 168.380758 608.67 
L 170.510663 635.445 
L 171.593073 651.06 
L 172.640567 648.27 
L 173.722977 641.97 
L 175.852882 625.095 
L 176.935292 618.795 
L 177.912953 609.3 
L 178.995363 601.47 
L 180.042857 598.32 
L 181.125268 601.92 
L 182.172761 611.595 
L 184.337582 641.82 
L 185.385076 647.145 
L 188.597391 617.895 
L 189.679801 615.72 
L 190.657462 607.68 
L 191.739872 594.945 
L 192.787366 587.52 
L 193.869777 593.28 
L 195.999681 628.02 
L 197.082091 641.07 
L 198.129585 641.97 
L 199.211995 633.42 
L 200.259489 621.27 
L 201.3419 611.82 
L 202.42431 588.42 
L 205.566792 588.42 
L 206.649202 590.67 
L 207.696696 603.72 
L 209.861517 637.02 
L 210.909011 633.78 
L 211.991421 626.895 
L 213.038915 618.345 
L 214.121325 611.82 
L 215.203736 602.37 
L 216.181397 598.095 
L 217.263807 588.42 
L 218.311301 587.88 
L 219.393711 590.445 
L 220.441205 597.06 
L 221.523616 617.895 
L 222.606026 625.995 
L 223.65352 630.36 
L 224.73593 616.545 
L 225.783424 612.495 
L 226.865834 601.56 
L 227.948245 592.245 
L 228.925906 585.045 
L 230.008316 573.48 
L 231.05581 570.195 
L 232.13822 573.12 
L 233.185714 580.77 
L 234.268125 604.62 
L 235.350535 618.12 
L 236.398029 622.8 
L 237.480439 607.32 
L 238.527933 596.88 
L 239.610344 584.82 
L 240.692754 584.595 
L 241.670415 579.42 
L 242.752825 567.9 
L 243.800319 561.87 
L 244.882729 569.745 
L 248.095044 612.72 
L 249.142538 611.37 
L 251.272442 589.14 
L 252.354853 583.47 
L 253.437263 578.97 
L 254.44984 571.14 
L 255.532251 561.645 
L 256.579745 557.145 
L 257.662155 559.08 
L 258.709649 570.195 
L 259.792059 588.96 
L 260.87447 604.17 
L 261.921964 603.945 
L 263.004374 594.54 
L 264.051868 580.095 
L 265.134278 571.095 
L 266.216689 567.945 
L 267.19435 556.02 
L 268.27676 547.245 
L 269.324254 540.9 
L 271.454158 554.22 
L 272.536568 574.56 
L 273.618979 584.82 
L 274.666473 590.22 
L 275.748883 581.04 
L 276.796377 569.295 
L 278.961198 552.195 
L 281.021269 533.745 
L 282.068763 535.14 
L 283.151173 538.47 
L 284.198667 549.72 
L 286.363488 578.07 
L 287.410982 578.16 
L 288.493392 569.97 
L 290.623296 551.16 
L 291.705707 546.57 
L 292.683368 541.62 
L 293.765778 537.345 
L 294.813272 527.04 
L 295.895682 530.145 
L 296.943176 541.44 
L 299.107997 575.82 
L 300.155491 574.56 
L 301.237901 562.995 
L 302.285395 553.095 
L 303.367806 545.94 
L 304.450216 537.795 
L 305.462793 536.895 
L 306.545204 519.66 
L 307.592698 516.42 
L 308.675108 524.745 
L 309.722602 534.06 
L 310.805012 550.17 
L 311.887423 562.68 
L 312.934916 558.72 
L 316.147231 529.47 
L 318.207302 513 
L 319.289713 502.245 
L 320.337207 494.82 
L 321.419617 498.96 
L 323.549521 522.495 
L 324.631932 538.92 
L 325.679426 541.395 
L 326.761836 533.97 
L 327.80933 528.66 
L 328.89174 522.495 
L 329.974151 510.795 
L 330.951812 502.92 
L 332.034222 492.795 
L 333.081716 489.645 
L 334.164126 496.98 
L 335.21162 506.745 
L 337.376441 540.045 
L 338.423935 540.045 
L 339.506345 530.82 
L 340.553839 519.345 
L 341.636249 514.17 
L 342.71866 504.72 
L 343.696321 498.42 
L 344.778731 486.945 
L 345.826225 481.68 
L 346.908635 485.82 
L 350.12095 529.695 
L 351.168444 531.495 
L 352.250854 521.46 
L 353.298348 509.445 
L 354.380758 500.76 
L 355.463169 493.47 
L 357.558157 476.37 
L 358.60565 473.58 
L 359.688061 476.82 
L 360.735555 490.68 
L 361.817965 509.895 
L 362.900375 522.27 
L 363.947869 524.52 
L 367.160184 490.5 
L 368.242594 485.595 
L 370.302666 462.06 
L 371.35016 456.345 
L 372.43257 460.62 
L 373.480064 473.22 
L 374.562474 490.545 
L 375.644885 502.245 
L 376.692378 505.62 
L 377.774789 495.27 
L 378.822283 481.68 
L 379.904693 471.195 
L 380.987103 468.27 
L 381.964764 457.02 
L 383.047175 447.66 
L 384.094669 444.87 
L 385.177079 445.095 
L 386.224573 457.92 
L 388.389394 491.76 
L 389.436888 492.57 
L 392.649202 460.395 
L 393.731613 456.12 
L 394.709274 444.42 
L 395.791684 436.545 
L 396.839178 432.045 
L 397.921588 433.26 
L 398.969082 448.695 
L 400.051492 462.195 
L 401.133903 480.6 
L 402.181397 480.87 
L 403.263807 470.07 
L 404.311301 456.48 
L 405.393711 445.095 
L 406.476122 442.395 
L 407.488699 425.88 
L 408.571109 419.67 
L 409.618603 414.36 
L 410.701014 417.87 
L 412.830918 448.02 
L 413.913328 463.545 
L 414.960822 462.195 
L 416.043233 452.88 
L 417.090726 442.62 
L 418.173137 433.44 
L 419.255547 422.37 
L 421.315619 404.37 
L 422.363112 401.04 
L 423.445523 407.295 
L 424.493017 422.595 
L 425.575427 440.82 
L 426.657837 456.12 
L 427.705331 453.96 
L 428.787742 440.595 
L 430.917646 420.12 
L 432.000056 412.47 
L 432.977717 402.345 
L 434.060128 395.145 
L 435.107622 390.78 
L 436.190032 396.72 
L 437.237526 409.14 
L 438.319936 429.795 
L 439.402347 444.195 
L 440.44984 445.32 
L 441.532251 432.945 
L 442.579745 422.595 
L 443.662155 414.36 
L 444.744565 403.92 
L 445.722226 398.07 
L 446.804637 382.32 
L 447.852131 375.57 
L 448.934541 378.945 
L 449.982035 392.04 
L 451.064445 407.07 
L 452.146856 427.545 
L 453.19435 426.24 
L 454.27676 416.07 
L 455.324254 399.6 
L 457.489075 386.595 
L 458.501652 379.845 
L 459.584062 359.82 
L 460.631556 360.27 
L 461.713967 366.48 
L 462.76146 379.62 
L 463.843871 396.72 
L 464.926281 416.34 
L 465.973775 413.145 
L 468.103679 389.16 
L 469.18609 382.095 
L 470.2685 373.545 
L 471.246161 359.46 
L 472.328571 351.495 
L 473.376065 346.995 
L 474.458476 352.8 
L 475.50597 368.37 
L 476.58838 387.72 
L 477.67079 399.42 
L 478.718284 401.22 
L 480.848188 376.245 
L 481.930599 370.17 
L 483.013009 364.995 
L 483.99067 356.76 
L 485.073081 340.695 
L 486.120574 335.7 
L 487.202985 342.045 
L 488.250479 355.995 
L 489.332889 374.04 
L 490.415299 383.22 
L 491.462793 389.52 
L 492.545204 375.84 
L 493.592698 364.545 
L 494.675108 354.42 
L 495.757518 349.92 
L 496.735179 341.145 
L 497.81759 328.77 
L 498.865084 320.76 
L 499.947494 326.07 
L 500.994988 341.37 
L 502.077398 353.7 
L 503.159809 368.82 
L 504.207302 368.46 
L 505.289713 355.095 
L 506.337207 346.095 
L 508.502027 320.445 
L 509.514605 317.295 
L 510.597015 304.2 
L 511.644509 298.845 
L 512.726919 302.67 
L 513.774413 316.44 
L 514.856824 333.72 
L 515.939234 347.67 
L 516.986728 345.78 
L 518.069138 336.42 
L 520.199043 311.445 
L 521.281453 309.42 
L 522.259114 304.02 
L 523.341524 288.18 
L 524.389018 286.02 
L 525.471429 290.295 
L 526.518922 301.68 
L 527.601333 322.245 
L 528.683743 337.68 
L 529.731237 335.97 
L 530.813647 325.62 
L 531.861141 314.1 
L 532.943552 303.57 
L 535.003623 287.1 
L 536.086033 280.845 
L 537.133527 272.745 
L 538.215938 281.7 
L 539.263432 294.345 
L 540.345842 310.32 
L 541.428252 327.96 
L 542.475746 325.395 
L 544.60565 299.16 
L 545.688061 294.345 
L 546.770471 285.57 
L 547.748132 271.62 
L 548.830543 259.02 
L 549.878036 253.17 
L 550.960447 262.8 
L 553.090351 301.68 
L 554.172761 317.295 
L 555.220255 316.17 
L 556.302666 302.76 
L 557.35016 291.195 
L 558.43257 283.32 
L 559.51498 276.3 
L 561.609968 254.745 
L 562.657462 250.56 
L 563.739872 254.295 
L 565.869777 292.68 
L 566.952187 309.195 
L 567.999681 305.64 
L 569.082091 298.62 
L 570.129585 288.27 
L 571.211995 276.3 
L 572.294406 271.845 
L 573.272067 260.595 
L 575.401971 244.8 
L 576.484381 250.92 
L 578.614286 288.495 
L 579.696696 302.445 
L 580.74419 299.88 
L 581.8266 288.27 
L 583.956505 261.54 
L 585.038915 256.32 
L 586.016576 247.095 
L 587.098986 235.44 
L 588.14648 231.57 
L 589.228891 238.32 
L 590.276384 251.28 
L 591.358795 270.045 
L 592.441205 283.095 
L 593.488699 282.24 
L 595.618603 254.88 
L 597.783424 238.095 
L 598.761085 232.245 
L 599.843495 216.18 
L 600.890989 213.12 
L 601.9734 217.17 
L 603.020894 230.22 
L 604.103304 252.045 
L 605.185714 264.42 
L 606.233208 265.77 
L 607.315619 251.145 
L 610.527933 217.845 
L 611.540511 209.88 
L 613.670415 198.495 
L 614.752825 202.5 
L 615.800319 215.145 
L 616.882729 234.54 
L 617.96514 251.82 
L 619.012634 249.795 
L 620.095044 239.76 
L 621.142538 225.045 
L 624.28502 205.38 
L 625.36743 189.495 
L 626.414924 186.3 
L 628.544828 207.045 
L 629.627239 224.28 
L 630.709649 245.07 
L 631.757143 239.67 
L 632.839553 225 
L 633.887047 208.17 
L 634.969457 198.36 
L 636.051868 190.62 
L 637.029529 180.045 
L 638.111939 169.695 
L 639.159433 164.16 
L 640.241843 167.67 
L 641.289337 178.02 
L 643.454158 211.095 
L 644.501652 207.54 
L 645.584062 196.47 
L 646.631556 184.095 
L 647.713967 173.34 
L 648.796377 166.77 
L 649.774038 160.02 
L 650.856448 147.645 
L 651.903942 148.86 
L 652.986353 154.17 
L 654.033846 165.42 
L 655.116257 186.12 
L 656.198667 204.345 
L 657.246161 200.16 
L 658.328571 186.57 
L 659.376065 175.32 
L 660.458476 165.24 
L 661.540886 162.045 
L 663.635874 142.56 
L 664.683368 141.57 
L 665.765778 141.795 
L 666.813272 156.96 
L 667.895682 174.87 
L 668.978093 187.56 
L 670.025587 185.895 
L 672.155491 161.46 
L 673.237901 154.845 
L 674.320312 144.495 
L 675.297973 137.88 
L 676.380383 131.445 
L 677.427877 122.22 
L 678.510287 128.88 
L 680.640191 161.595 
L 681.722602 175.5 
L 682.770096 173.97 
L 683.852506 162.045 
L 684.9 147.24 
L 684.9 147.24 
" style="fill:none;stroke:#1f77b4;stroke-linecap:round;stroke-width:1.5;"/>
   </g>
   <g id="patch_3">
    <path d="M 99 693 
L 99 95.04 
" style="fill:none;stroke:#cccccc;stroke-linecap:square;stroke-linejoin:miter;"/>
   </g>
   <g id="patch_4">
    <path d="M 712.8 693 
L 712.8 95.04 
" style="fill:none;stroke:#cccccc;stroke-linecap:square;stroke-linejoin:miter;"/>
   </g>
   <g id="patch_5">
    <path d="M 99 693 
L 712.8 693 
" style="fill:none;stroke:#cccccc;stroke-linecap:square;stroke-linejoin:miter;"/>
   </g>
   <g id="patch_6">
    <path d="M 99 95.04 
L 712.8 95.04 
" style="fill:none;stroke:#cccccc;stroke-linecap:square;stroke-linejoin:miter;"/>
   </g>
  </g>
 </g>
 <defs>
  <clipPath id="p7c96cd3a65">
   <rect height="597.96" width="613.8" x="99" y="95.04"/>
  </clipPath>
 </defs>
</svg>
